<?xml version="1.0" standalone="no"?>
<!DOCTYPE svg PUBLIC "-//W3C//DTD SVG 20010904//EN"
 "http://www.w3.org/TR/2001/REC-SVG-20010904/DTD/svg10.dtd">
<svg version="1.0" xmlns="http://www.w3.org/2000/svg"
 width="1080.000000pt" height="1080.000000pt" viewBox="0 0 1080.000000 1080.000000"
 preserveAspectRatio="xMidYMid meet">
<metadata>
Created by potrace 1.14, written by Peter Selinger 2001-2017
</metadata>
<g transform="translate(0.000000,1080.000000) scale(0.100000,-0.100000)"
fill="#000000" stroke="none">
<path d="M5005 10733 c-112 -128 -173 -213 -232 -323 -85 -159 -142 -336 -168
-515 -15 -102 -13 -353 3 -460 6 -38 14 -92 17 -120 4 -27 9 -61 11 -75 3 -14
7 -88 9 -165 4 -144 -10 -257 -41 -317 -8 -16 -12 -28 -10 -28 2 0 -13 -36
-35 -81 -92 -187 -119 -421 -67 -576 14 -40 23 -73 22 -73 -2 0 -15 12 -29 28
-39 41 -65 96 -79 170 -7 37 -13 69 -14 72 -4 21 31 156 52 200 29 62 61 119
74 132 5 5 5 36 0 71 -4 34 -10 78 -12 97 -3 19 -12 69 -21 110 -9 41 -18 85
-21 98 -25 120 -114 368 -206 572 -63 141 -75 162 -65 120 33 -141 52 -469 33
-582 -3 -21 -9 -55 -12 -75 -22 -151 -74 -312 -150 -468 -33 -68 -50 -97 -196
-332 -61 -99 -86 -148 -134 -258 -18 -42 -71 -220 -80 -270 -3 -16 -7 -43 -10
-60 -2 -16 -6 -41 -10 -55 -12 -53 -12 -287 1 -365 14 -85 44 -185 75 -244 9
-20 30 -67 45 -105 88 -220 71 -319 -56 -340 -44 -7 -114 46 -155 117 -26 44
-64 123 -83 175 -29 73 -88 280 -96 333 -4 24 -8 46 -11 50 -2 4 -5 48 -6 98
-1 50 -4 91 -8 91 -5 0 -41 -89 -45 -110 -1 -3 -11 -36 -24 -75 -37 -119 -54
-239 -48 -355 7 -129 8 -134 78 -357 24 -77 38 -171 32 -223 -12 -102 -87
-174 -157 -150 -106 35 -274 265 -351 480 -29 84 -53 179 -63 255 -9 68 -8
339 1 399 19 118 79 354 102 399 4 6 -13 -9 -37 -34 -157 -167 -280 -340 -343
-482 -65 -149 -78 -328 -40 -562 3 -22 9 -49 12 -60 4 -11 8 -24 9 -30 1 -5
12 -44 24 -85 12 -41 22 -77 22 -80 0 -3 7 -14 14 -25 8 -11 14 -26 14 -34 0
-26 107 -228 182 -342 113 -172 188 -311 203 -377 3 -9 9 -35 14 -56 17 -67 6
-160 -26 -217 -48 -89 -123 -138 -215 -141 -158 -5 -327 147 -382 342 -34 122
-26 244 33 528 15 73 24 129 21 125 -10 -11 -112 -205 -177 -334 -82 -166
-132 -303 -148 -414 -4 -22 -10 -58 -15 -80 -5 -22 -8 -121 -6 -220 4 -204 21
-293 80 -418 58 -121 107 -170 307 -303 307 -203 397 -323 403 -539 2 -49 -2
-108 -9 -130 -6 -22 -12 -43 -13 -48 -3 -16 -35 -71 -51 -88 -31 -34 -87 -51
-130 -39 -43 11 -112 58 -156 105 -119 129 -147 192 -185 419 -11 66 -23 122
-25 125 -3 2 -5 -16 -6 -40 -1 -24 -3 -57 -5 -74 -6 -46 -6 -323 0 -353 3 -15
8 -47 11 -72 5 -39 14 -92 29 -165 3 -11 16 -60 30 -108 69 -232 173 -412 336
-576 175 -177 353 -295 805 -535 22 -11 43 -25 47 -31 4 -5 8 -7 8 -3 0 8 31
-8 134 -71 91 -56 119 -76 191 -136 128 -107 195 -192 202 -259 5 -39 2 -48
-28 -80 -41 -44 -82 -50 -199 -29 -140 26 -276 83 -400 167 -41 28 -80 54 -87
59 -13 8 47 -88 114 -182 57 -81 247 -268 339 -334 113 -80 232 -140 498 -252
418 -176 650 -299 836 -443 87 -68 246 -238 303 -324 32 -47 78 -134 104 -192
41 -96 63 -127 63 -93 1 32 72 183 124 261 47 71 196 234 257 282 160 124 260
179 504 278 168 69 289 128 374 183 60 40 208 182 256 248 16 22 47 61 68 87
21 27 36 48 32 48 -3 0 -38 -22 -78 -49 -107 -72 -215 -122 -296 -137 -14 -3
-27 -7 -31 -9 -4 -2 -29 -7 -56 -11 -27 -3 -70 -9 -96 -14 -85 -13 -152 4
-164 42 -23 75 79 192 186 213 12 2 30 7 40 10 9 3 42 7 71 10 81 5 148 15
214 31 33 8 70 17 82 20 120 25 382 147 523 242 275 186 479 419 617 703 82
168 93 192 90 196 -2 1 -38 -41 -80 -95 -42 -54 -105 -121 -140 -150 -68 -55
-189 -117 -246 -127 -19 -3 -38 -8 -42 -11 -17 -10 -186 -5 -214 7 -82 36
-127 97 -127 175 0 51 35 131 81 189 18 22 143 153 279 290 531 538 678 730
822 1075 104 250 154 502 152 770 -1 194 -10 248 -73 429 -135 384 -141 409
-140 543 0 76 13 139 38 188 16 32 12 34 -34 19 -58 -19 -132 -102 -186 -210
-27 -52 -50 -107 -53 -123 -3 -16 -7 -33 -9 -36 -2 -4 -7 -22 -10 -41 -4 -19
-8 -41 -10 -49 -2 -8 -4 -30 -4 -47 -1 -18 -4 -33 -8 -33 -9 1 -63 82 -81 120
-33 74 -36 198 -6 279 14 39 117 194 187 281 31 39 88 182 102 255 10 53 7
213 -5 272 -28 144 -91 298 -212 518 -108 197 -130 277 -130 471 0 83 4 129
17 219 3 17 7 46 10 65 3 19 11 64 19 100 8 36 13 66 12 68 -2 1 -23 -17 -47
-40 -148 -141 -242 -346 -256 -558 -6 -88 9 -240 29 -288 6 -15 14 -36 18 -47
5 -11 25 -60 46 -109 56 -136 64 -176 60 -301 -5 -111 -26 -259 -47 -312 -6
-15 -10 -30 -10 -33 1 -9 -11 -44 -31 -90 -62 -143 -102 -193 -150 -188 -50 5
-65 38 -72 153 -26 428 -137 833 -301 1095 -30 48 -114 159 -152 199 l-22 25
14 -46 c44 -149 40 -424 -10 -643 -40 -179 -92 -273 -178 -325 -83 -51 -134
-4 -197 178 -48 139 -70 380 -46 507 3 17 8 45 11 64 3 18 34 122 69 230 35
108 67 212 71 231 l7 35 -38 -35 c-128 -119 -209 -222 -274 -347 -16 -30 -31
-49 -35 -44 -11 19 -34 141 -30 164 2 12 6 42 9 67 5 47 39 150 76 235 57 130
89 325 67 400 -3 11 -8 37 -12 59 -3 21 -7 41 -10 45 -2 4 -6 18 -9 32 -3 13
-15 56 -27 94 -55 179 -68 332 -34 418 10 24 -17 22 -60 -5 -55 -35 -90 -116
-90 -203 1 -66 11 -150 20 -165 19 -31 25 -213 9 -290 -18 -86 -48 -143 -112
-210 -43 -46 -51 -51 -47 -30 5 25 11 58 21 119 13 75 7 237 -11 336 -8 43
-43 155 -59 190 -111 242 -120 313 -62 535 45 177 43 246 -14 453 -57 209 -67
271 -68 431 -1 145 12 243 47 368 11 40 19 73 17 75 -2 2 -33 -27 -70 -64
-125 -126 -193 -288 -194 -464 0 -38 4 -84 8 -102 5 -18 11 -43 14 -57 3 -14
11 -57 19 -97 23 -113 15 -153 -65 -323 -27 -58 -56 -130 -64 -160 -22 -81
-21 -209 3 -335 55 -295 60 -408 24 -510 -35 -100 -112 -200 -223 -289 l-47
-37 -25 38 c-45 69 -61 138 -61 258 0 61 3 128 7 150 69 424 53 664 -60 890
-45 91 -182 270 -169 220 3 -11 13 -49 22 -84 9 -35 27 -92 39 -125 95 -255
76 -449 -72 -726 -135 -253 -169 -332 -182 -415 -15 -97 -15 -199 1 -257 16
-60 39 -103 111 -205 100 -143 170 -297 185 -403 3 -19 8 -54 12 -77 13 -71 4
-244 -18 -339 -13 -52 -42 -131 -72 -191 -57 -116 -92 -158 -55 -66 24 59 51
152 60 208 2 17 7 48 10 70 4 22 7 78 7 125 1 230 -50 391 -199 629 -95 150
-114 203 -114 311 0 47 3 100 6 118 14 72 57 188 91 244 40 64 41 82 14 223
-5 28 -12 62 -14 76 -12 66 -70 274 -117 417 -73 221 -113 364 -123 439 -3 26
-8 49 -10 52 -2 3 -6 42 -10 86 -4 44 -9 84 -12 88 -6 11 -4 354 3 392 3 17 5
39 5 50 -1 11 4 43 9 70 5 28 11 66 14 85 9 60 36 171 68 273 16 54 28 100 26
102 -2 2 -26 -22 -53 -52z m1171 -2506 c3 -118 -11 -237 -57 -452 -51 -243
-47 -325 29 -526 22 -57 42 -122 45 -144 6 -38 5 -37 -32 30 -21 39 -55 97
-75 129 -46 76 -72 146 -82 221 -16 118 -11 145 89 535 25 96 49 198 53 225 4
28 9 55 10 60 1 6 2 16 3 24 0 8 4 12 7 8 4 -3 8 -53 10 -110z m-2023 -649
c-10 -147 -7 -291 9 -361 4 -20 11 -53 14 -71 6 -38 22 -97 82 -291 86 -277
119 -461 108 -605 -9 -131 -25 -208 -26 -124 -2 122 -38 305 -99 497 -23 70
-59 182 -80 250 -22 67 -47 158 -56 202 -25 123 -26 300 -2 415 2 8 7 31 11
50 8 38 38 130 43 130 1 0 0 -42 -4 -92z m3352 -933 c4 -16 9 -39 11 -50 2
-11 11 -54 19 -95 39 -186 9 -389 -75 -511 -45 -65 -68 -77 -46 -24 44 105 56
288 41 606 -4 86 -5 169 -1 185 7 27 8 26 26 -26 9 -30 21 -68 25 -85z m-1630
-122 c19 -52 22 -81 20 -151 -5 -106 -6 -116 -41 -222 -15 -47 -29 -89 -31
-95 -10 -32 -19 -106 -17 -145 l2 -45 -17 38 c-29 61 -26 150 8 284 46 184 54
269 34 368 -7 33 -12 64 -13 70 0 22 34 -42 55 -102z m830 -767 c33 -4 78 -12
100 -17 86 -22 121 -32 135 -37 8 -3 20 -6 25 -7 24 -6 120 -47 177 -76 228
-115 418 -298 531 -510 36 -70 93 -215 101 -261 2 -15 7 -31 10 -36 3 -4 7
-28 10 -53 3 -24 8 -55 11 -69 10 -45 13 -293 5 -370 -16 -137 -20 -164 -51
-288 -67 -272 -198 -580 -367 -862 -12 -19 -29 -48 -38 -65 -90 -160 -259
-397 -773 -1085 -244 -327 -496 -665 -560 -751 -64 -85 -201 -275 -306 -422
-104 -146 -192 -266 -195 -266 -3 -1 -25 29 -50 66 -38 56 -68 98 -108 148 -4
6 -30 42 -57 80 -27 39 -53 75 -58 80 -4 6 -60 80 -124 165 -106 141 -339 438
-353 450 -3 3 -33 37 -65 75 -32 39 -64 75 -69 81 -6 6 -24 26 -40 45 -49 57
-169 191 -210 236 -21 23 -50 56 -63 72 -14 16 -41 47 -61 69 -20 22 -56 61
-79 88 -23 27 -54 63 -68 79 -21 24 -157 187 -243 290 -9 11 -57 74 -107 140
-218 288 -368 540 -480 810 -20 50 -41 99 -45 110 -22 52 -82 251 -95 313 -2
9 -8 40 -15 67 -6 28 -13 68 -16 90 -3 22 -7 46 -9 53 -8 22 -18 164 -19 257
-1 133 11 253 40 370 15 64 16 66 28 105 10 35 69 174 76 180 3 3 18 30 35 60
16 30 32 60 37 65 141 180 181 222 280 293 207 151 427 204 743 179 94 -8 192
-26 285 -53 75 -22 248 -92 280 -113 14 -9 36 -22 50 -28 45 -19 183 -129 251
-199 101 -105 189 -212 189 -231 0 -4 13 -25 28 -45 l28 -37 104 157 c57 86
107 159 110 162 3 3 22 28 42 55 45 62 146 160 214 207 219 153 503 219 799
184z m-4454 -667 c15 -54 14 -50 23 -74 11 -29 80 -169 86 -175 3 -3 21 -27
40 -55 37 -53 139 -160 180 -189 l25 -18 -35 7 c-224 44 -411 334 -366 570 12
59 20 65 27 19 4 -23 13 -61 20 -85z m6143 -194 c90 -236 78 -505 -32 -738
-43 -89 -125 -205 -179 -251 l-35 -29 50 94 c45 86 107 234 101 241 -1 2 3 12
9 24 6 11 13 32 16 45 3 13 12 53 21 89 8 36 18 97 22 135 14 125 6 385 -13
448 -3 9 -2 17 3 17 5 0 21 -34 37 -75z m-5548 -1811 c38 -42 79 -88 92 -103
43 -48 167 -185 182 -201 26 -26 73 -90 66 -90 -3 0 -30 11 -60 25 -98 45
-206 140 -272 239 -34 52 -88 166 -79 166 3 0 1 9 -5 20 -21 40 8 18 76 -56z"/>
<path d="M6285 5558 c-209 -27 -411 -173 -474 -341 -10 -26 -5 -23 51 25 72
61 67 58 133 101 107 71 299 149 430 173 22 5 43 9 48 10 4 1 17 2 30 3 l22 2
-24 10 c-20 8 -66 16 -136 23 -11 1 -47 -2 -80 -6z"/>
<path d="M4110 5489 c-266 -34 -479 -183 -618 -430 -41 -73 -108 -309 -88
-309 2 0 23 33 47 73 176 298 398 465 684 513 67 11 196 10 270 -3 144 -26
268 -75 450 -178 l50 -28 -52 60 c-67 77 -115 120 -189 170 -158 105 -368 155
-554 132z"/>
<path d="M6768 2767 c-100 -101 -206 -217 -288 -317 -25 -30 -47 -57 -50 -60
-43 -39 -410 -548 -410 -569 0 -5 -4 -11 -8 -13 -4 -1 -27 -34 -52 -73 -61
-98 -91 -149 -193 -325 -61 -106 -211 -419 -189 -395 25 27 176 220 228 290
32 44 63 84 67 90 17 21 256 354 312 435 72 104 410 610 447 671 15 24 33 53
40 64 41 63 147 245 143 245 -2 0 -23 -19 -47 -43z"/>
</g>
</svg>
